<svg width="14" height="16" viewBox="0 0 14 16" fill="none" xmlns="http://www.w3.org/2000/svg">
<path d="M12.0518 1.96139C11.3462 1.25701 10.2035 1.25701 9.49791 1.96139L8.8586 2.6042L2.05329 9.4059L2.03883 9.42048C2.03532 9.42398 2.03532 9.42771 2.03159 9.42771C2.02436 9.43855 2.01352 9.44929 2.0064 9.46013C2.0064 9.46375 2.00267 9.46375 2.00267 9.46737C1.99544 9.47821 1.99193 9.48544 1.98459 9.49629C1.98109 9.49991 1.98109 9.50341 1.97747 9.50714C1.97386 9.51799 1.97024 9.52522 1.96651 9.53606C1.96651 9.53957 1.96301 9.53957 1.96301 9.5433L0.453114 14.0837C0.408821 14.213 0.442493 14.3561 0.539778 14.4521C0.608137 14.5195 0.700337 14.5573 0.796267 14.5569C0.835474 14.5562 0.874343 14.5501 0.911856 14.5388L5.44877 13.0253C5.45227 13.0253 5.45227 13.0253 5.456 13.0218C5.46741 13.0184 5.47837 13.0136 5.48843 13.0073C5.49126 13.0069 5.49374 13.0057 5.49578 13.0037C5.50651 12.9965 5.52097 12.9892 5.53182 12.9819C5.54255 12.9748 5.55351 12.964 5.56436 12.9567C5.56798 12.953 5.57148 12.953 5.57148 12.9495C5.57521 12.9459 5.58244 12.9424 5.58606 12.9351L13.0307 5.49043C13.7351 4.78481 13.7351 3.64213 13.0307 2.93662L12.0518 1.96139ZM5.33318 12.1764L2.81914 9.6625L9.11148 3.37016L11.6255 5.88409L5.33318 12.1764ZM2.46503 10.3307L4.66134 12.5269L1.36337 13.625L2.46503 10.3307ZM12.5214 4.98469L12.1385 5.37123L9.62434 2.85707L10.011 2.47064C10.4339 2.04806 11.1194 2.04806 11.5425 2.47064L12.5249 3.4531C12.9447 3.87794 12.9431 4.56187 12.5214 4.98469Z" fill="white"/>
<path d="M12.0518 1.96139C11.3462 1.25701 10.2035 1.25701 9.49791 1.96139L8.8586 2.6042L2.05329 9.4059L2.03883 9.42048C2.03532 9.42398 2.03532 9.42771 2.03159 9.42771C2.02436 9.43855 2.01352 9.44929 2.0064 9.46013C2.0064 9.46375 2.00267 9.46375 2.00267 9.46737C1.99544 9.47821 1.99193 9.48544 1.98459 9.49629C1.98109 9.49991 1.98109 9.50341 1.97747 9.50714C1.97386 9.51799 1.97024 9.52522 1.96651 9.53606C1.96651 9.53957 1.96301 9.53957 1.96301 9.5433L0.453114 14.0837C0.408821 14.213 0.442493 14.3561 0.539778 14.4521C0.608137 14.5195 0.700337 14.5573 0.796267 14.5569C0.835474 14.5562 0.874343 14.5501 0.911856 14.5388L5.44877 13.0253C5.45227 13.0253 5.45227 13.0253 5.456 13.0218C5.46741 13.0184 5.47837 13.0136 5.48843 13.0073C5.49126 13.0069 5.49374 13.0057 5.49578 13.0037C5.50651 12.9965 5.52097 12.9892 5.53182 12.9819C5.54255 12.9748 5.55351 12.964 5.56436 12.9567C5.56798 12.953 5.57148 12.953 5.57148 12.9495C5.57521 12.9459 5.58244 12.9424 5.58606 12.9351L13.0307 5.49043C13.7351 4.78481 13.7351 3.64213 13.0307 2.93662L12.0518 1.96139ZM5.33318 12.1764L2.81914 9.6625L9.11148 3.37016L11.6255 5.88409L5.33318 12.1764ZM2.46503 10.3307L4.66134 12.5269L1.36337 13.625L2.46503 10.3307ZM12.5214 4.98469L12.1385 5.37123L9.62434 2.85707L10.011 2.47064C10.4339 2.04806 11.1194 2.04806 11.5425 2.47064L12.5249 3.4531C12.9447 3.87794 12.9431 4.56187 12.5214 4.98469Z" fill="#1E212A" fill-opacity="0.8"/>
<path d="M12.0518 1.96139C11.3462 1.25701 10.2035 1.25701 9.49791 1.96139L8.8586 2.6042L2.05329 9.4059L2.03883 9.42048C2.03532 9.42398 2.03532 9.42771 2.03159 9.42771C2.02436 9.43855 2.01352 9.44929 2.0064 9.46013C2.0064 9.46375 2.00267 9.46375 2.00267 9.46737C1.99544 9.47821 1.99193 9.48544 1.98459 9.49629C1.98109 9.49991 1.98109 9.50341 1.97747 9.50714C1.97386 9.51799 1.97024 9.52522 1.96651 9.53606C1.96651 9.53957 1.96301 9.53957 1.96301 9.5433L0.453114 14.0837C0.408821 14.213 0.442493 14.3561 0.539778 14.4521C0.608137 14.5195 0.700337 14.5573 0.796267 14.5569C0.835474 14.5562 0.874343 14.5501 0.911856 14.5388L5.44877 13.0253C5.45227 13.0253 5.45227 13.0253 5.456 13.0218C5.46741 13.0184 5.47837 13.0136 5.48843 13.0073C5.49126 13.0069 5.49374 13.0057 5.49578 13.0037C5.50651 12.9965 5.52097 12.9892 5.53182 12.9819C5.54255 12.9748 5.55351 12.964 5.56436 12.9567C5.56798 12.953 5.57148 12.953 5.57148 12.9495C5.57521 12.9459 5.58244 12.9424 5.58606 12.9351L13.0307 5.49043C13.7351 4.78481 13.7351 3.64213 13.0307 2.93662L12.0518 1.96139ZM5.33318 12.1764L2.81914 9.6625L9.11148 3.37016L11.6255 5.88409L5.33318 12.1764ZM2.46503 10.3307L4.66134 12.5269L1.36337 13.625L2.46503 10.3307ZM12.5214 4.98469L12.1385 5.37123L9.62434 2.85707L10.011 2.47064C10.4339 2.04806 11.1194 2.04806 11.5425 2.47064L12.5249 3.4531C12.9447 3.87794 12.9431 4.56187 12.5214 4.98469Z" stroke="white" stroke-width="0.3"/>
<path d="M12.0518 1.96139C11.3462 1.25701 10.2035 1.25701 9.49791 1.96139L8.8586 2.6042L2.05329 9.4059L2.03883 9.42048C2.03532 9.42398 2.03532 9.42771 2.03159 9.42771C2.02436 9.43855 2.01352 9.44929 2.0064 9.46013C2.0064 9.46375 2.00267 9.46375 2.00267 9.46737C1.99544 9.47821 1.99193 9.48544 1.98459 9.49629C1.98109 9.49991 1.98109 9.50341 1.97747 9.50714C1.97386 9.51799 1.97024 9.52522 1.96651 9.53606C1.96651 9.53957 1.96301 9.53957 1.96301 9.5433L0.453114 14.0837C0.408821 14.213 0.442493 14.3561 0.539778 14.4521C0.608137 14.5195 0.700337 14.5573 0.796267 14.5569C0.835474 14.5562 0.874343 14.5501 0.911856 14.5388L5.44877 13.0253C5.45227 13.0253 5.45227 13.0253 5.456 13.0218C5.46741 13.0184 5.47837 13.0136 5.48843 13.0073C5.49126 13.0069 5.49374 13.0057 5.49578 13.0037C5.50651 12.9965 5.52097 12.9892 5.53182 12.9819C5.54255 12.9748 5.55351 12.964 5.56436 12.9567C5.56798 12.953 5.57148 12.953 5.57148 12.9495C5.57521 12.9459 5.58244 12.9424 5.58606 12.9351L13.0307 5.49043C13.7351 4.78481 13.7351 3.64213 13.0307 2.93662L12.0518 1.96139ZM5.33318 12.1764L2.81914 9.6625L9.11148 3.37016L11.6255 5.88409L5.33318 12.1764ZM2.46503 10.3307L4.66134 12.5269L1.36337 13.625L2.46503 10.3307ZM12.5214 4.98469L12.1385 5.37123L9.62434 2.85707L10.011 2.47064C10.4339 2.04806 11.1194 2.04806 11.5425 2.47064L12.5249 3.4531C12.9447 3.87794 12.9431 4.56187 12.5214 4.98469Z" stroke="#1E212A" stroke-opacity="0.8" stroke-width="0.3"/>
</svg>
