<svg width="13" height="15" viewBox="0 0 13 15" fill="none" xmlns="http://www.w3.org/2000/svg">
<path d="M0.929603 5.80704C1.5838 5.45776 2.40817 5.68484 2.77076 6.31446C3.22301 7.0988 3.27857 7.48731 3.27857 7.48731V1.36403C3.27857 1.04914 3.41122 0.763787 3.62609 0.557053C3.84097 0.350261 4.13749 0.222656 4.46473 0.222656C5.11948 0.222656 5.65039 0.733282 5.65085 1.36322V5.40454C5.65085 4.77415 6.18194 4.26311 6.8371 4.26311C7.49225 4.26311 8.02334 4.77415 8.02334 5.40454V5.69557C8.02334 5.06518 8.55443 4.55411 9.20956 4.55411C9.86471 4.55411 10.3958 5.06515 10.3958 5.69557V6.83703C10.3958 6.20661 10.9269 5.69557 11.582 5.69557C12.2372 5.69557 12.7683 6.20661 12.7683 6.83703V9.46967C12.7683 11.9243 11.132 14.7772 8.23519 14.7772C8.23519 14.7772 7.54939 14.7772 6.08211 14.7772C0.731952 14.7772 0.750937 9.54773 0.750937 9.54773C0.750937 9.54773 0.751801 8.18537 0.402246 7.57871C0.0394174 6.94954 0.275407 6.15632 0.929603 5.80704Z" fill="white"/>
<path d="M3.67084 9.5431C3.45424 9.5431 3.27866 9.37414 3.27866 9.16572V1.36415C3.27866 1.04929 3.41108 0.763846 3.62593 0.557113C3.84108 0.350379 4.13741 0.222656 4.46462 0.222656C4.60229 0.222656 4.7341 0.245231 4.85696 0.286815C4.68718 0.343845 4.53531 0.437112 4.4106 0.557113C4.19576 0.763846 4.06302 1.04929 4.06302 1.36415V9.16572C4.06302 9.37414 3.88744 9.5431 3.67084 9.5431Z" fill="#A0BFDB"/>
<path d="M6.04312 7.42291C5.82652 7.42291 5.65094 7.25396 5.65094 7.04553V5.40467C5.65094 5.08982 5.78337 4.80437 5.99821 4.59764C6.21336 4.39091 6.5097 4.26318 6.8369 4.26318C6.97457 4.26318 7.10638 4.28576 7.22924 4.32734C7.05946 4.38437 6.90759 4.47764 6.78288 4.59764C6.56804 4.80437 6.43531 5.08982 6.43531 5.40467V7.04553C6.43531 7.25396 6.25969 7.42291 6.04312 7.42291Z" fill="#A0BFDB"/>
<path d="M8.41565 6.97129C8.19905 6.97129 8.02347 6.80234 8.02347 6.59391V5.69569C8.02347 5.38084 8.15589 5.09539 8.37074 4.88866C8.58589 4.68192 8.88223 4.5542 9.20943 4.5542C9.3471 4.5542 9.47891 4.57677 9.60177 4.61836C9.43199 4.67539 9.28012 4.76866 9.15541 4.88866C8.94057 5.09539 8.80783 5.38084 8.80783 5.69569V6.59391C8.80783 6.80231 8.63225 6.97129 8.41565 6.97129Z" fill="#A0BFDB"/>
<path d="M10.7879 7.51832C10.5713 7.51832 10.3958 7.34936 10.3958 7.14094V6.83681C10.3958 6.52195 10.5282 6.2365 10.743 6.02977C10.9582 5.82304 11.2545 5.69531 11.5817 5.69531C11.7194 5.69531 11.8512 5.71789 11.9741 5.75947C11.8043 5.8165 11.6524 5.90977 11.5277 6.02977C11.3129 6.2365 11.1801 6.52195 11.1801 6.83681V7.14094C11.1801 7.34936 11.0045 7.51832 10.7879 7.51832Z" fill="#A0BFDB"/>
<path d="M7.16826 14.777H6.082C0.731867 14.777 0.751006 9.5475 0.751006 9.5475C0.751006 9.53324 0.75008 8.18205 0.402192 7.57848C0.0394865 6.94937 0.275322 6.1563 0.929735 5.80699C1.31374 5.60204 1.75639 5.5955 2.12959 5.75263C2.09101 5.76897 2.05304 5.78709 2.01569 5.80699C1.36159 6.1563 1.12544 6.94937 1.48845 7.57848C1.83603 8.18205 1.83696 9.53324 1.83696 9.5475C1.83696 9.5475 1.81813 14.777 7.16826 14.777Z" fill="#A0BFDB"/>
<path d="M11.9592 12.5045C11.8495 12.4358 11.7033 12.4681 11.6354 12.5748C10.8228 13.8513 9.61532 14.5543 8.23525 14.5543H6.08217C4.58406 14.5543 3.38343 14.1292 2.51362 13.2908C0.995966 11.8279 0.982476 9.57084 0.982538 9.54779C0.982569 9.48981 0.979142 8.12027 0.604769 7.47054C0.436536 7.17883 0.416502 6.8344 0.554515 6.52032C0.632273 6.3434 0.759606 6.1891 0.921017 6.07611C1.20816 5.87511 1.56203 5.81582 1.89584 5.90781C2.18409 5.98727 2.42292 6.17 2.56835 6.42253C2.57211 6.42907 2.57588 6.4356 2.57958 6.44208C2.88725 6.97917 3.04709 7.58279 3.04709 8.19607V9.53368C3.04709 9.65567 3.14475 9.76204 3.27147 9.76569C3.40257 9.7695 3.51011 9.66833 3.51011 9.54301V3.08709C3.51011 2.9651 3.41245 2.85874 3.28573 2.85508C3.15463 2.85128 3.04709 2.95245 3.04709 3.07777V6.33711C3.02366 6.29475 2.99909 6.25124 2.97328 6.20644C2.76794 5.84986 2.43055 5.59168 2.0233 5.47946C1.5737 5.35554 1.09839 5.42594 0.703579 5.67886C0.430516 5.85378 0.219746 6.10872 0.104113 6.40412C-0.0631637 6.8314 -0.0271711 7.29307 0.199836 7.68663C0.462249 8.14207 0.519541 9.18435 0.519449 9.54684C0.519078 9.6465 0.529604 12.0062 2.18295 13.6027C3.14312 14.5298 4.45497 14.9999 6.08217 14.9999H8.23525C9.77908 14.9999 11.1242 14.2248 12.0241 12.8171C12.0911 12.7124 12.0663 12.5715 11.9592 12.5045Z" fill="black"/>
<path d="M11.5822 5.47288C11.2148 5.47288 10.8796 5.60806 10.6274 5.82941V5.69565C10.6274 4.94342 9.99142 4.33145 9.20968 4.33145C8.77215 4.33145 8.38027 4.52315 8.11999 4.82387C7.89289 4.36127 7.40325 4.04042 6.83722 4.04042C6.46982 4.04042 6.13462 4.1756 5.88248 4.39695V1.36316C5.88196 0.611527 5.24601 0 4.46488 0C4.08631 0 3.73033 0.141921 3.46252 0.399625C3.1947 0.657329 3.04718 0.999865 3.04718 1.36414V2.18677C3.04718 2.3098 3.15084 2.40954 3.27869 2.40954C3.40655 2.40954 3.51021 2.3098 3.51021 2.18677V1.36414C3.51021 1.11888 3.60954 0.888241 3.78991 0.714686C3.97027 0.541131 4.20997 0.445546 4.46488 0.445546C4.99088 0.445546 5.41912 0.857349 5.41949 1.36334V7.32697C5.41949 7.45001 5.52314 7.54975 5.651 7.54975C5.77886 7.54975 5.88252 7.45001 5.88252 7.32697V5.40462C5.88252 4.89807 6.31082 4.48597 6.83725 4.48597C7.36368 4.48597 7.79198 4.89807 7.79198 5.40462V6.95533C7.79198 7.07836 7.89564 7.1781 8.02349 7.1781C8.15135 7.1781 8.25501 7.07836 8.25501 6.95533V5.69568C8.25501 5.18913 8.68331 4.77703 9.20971 4.77703C9.73614 4.77703 10.1644 5.18916 10.1644 5.69568V7.43316C10.1644 7.55619 10.2681 7.65594 10.396 7.65594C10.5238 7.65594 10.6275 7.55619 10.6275 7.43316V6.83714C10.6275 6.33059 11.0558 5.91846 11.5822 5.91846C12.1086 5.91846 12.5369 6.33059 12.5369 6.83714V9.46978C12.5369 10.2305 12.376 11.0155 12.0714 11.7398C12.0234 11.8538 12.0806 11.9837 12.1992 12.0298C12.2276 12.0409 12.257 12.0462 12.2859 12.0462C12.3775 12.0462 12.4642 11.9936 12.5006 11.9069C12.8273 11.13 13 10.2873 13 9.46978V6.83714C12.9999 6.08488 12.3639 5.47288 11.5822 5.47288Z" fill="black"/>
<path d="M5.81044 12.2517V9.8131C5.81044 9.69007 5.70679 9.59033 5.57893 9.59033C5.45107 9.59033 5.34741 9.69007 5.34741 9.8131V12.2517C5.34741 12.3747 5.45107 12.4745 5.57893 12.4745C5.70679 12.4745 5.81044 12.3747 5.81044 12.2517Z" fill="black"/>
<path d="M7.28862 12.2517V9.8131C7.28862 9.69007 7.18497 9.59033 7.05711 9.59033C6.92925 9.59033 6.82559 9.69007 6.82559 9.8131V12.2517C6.82559 12.3747 6.92925 12.4745 7.05711 12.4745C7.18497 12.4745 7.28862 12.3747 7.28862 12.2517Z" fill="black"/>
<path d="M8.76705 12.2517V9.8131C8.76705 9.69007 8.66339 9.59033 8.53553 9.59033C8.40767 9.59033 8.30402 9.69007 8.30402 9.8131V12.2517C8.30402 12.3747 8.40767 12.4745 8.53553 12.4745C8.66339 12.4745 8.76705 12.3747 8.76705 12.2517Z" fill="black"/>
</svg>
